<svg xmlns="http://www.w3.org/2000/svg" viewBox="0 0 269.35 325.44"><defs><style>.cls-1{fill:#f6863b;}.cls-2{fill:#fcce4d;}.cls-3{fill:#97d7db;}.cls-4{fill:#fff8ee;}.cls-5{fill:#243d4d;}</style></defs><title>logo-t</title><g id="Layer_2" data-name="Layer 2"><g id="Layer_1-2" data-name="Layer 1"><polygon class="cls-1" points="269.35 222.18 224.45 196.38 224.45 247.99 269.35 222.18"/><polygon class="cls-2" points="269.35 170.58 224.45 144.78 224.45 196.38 269.35 170.58"/><polygon class="cls-2" points="269.35 273.79 224.45 247.99 224.45 299.59 269.35 273.79"/><polygon class="cls-2" points="269.35 325.39 224.45 299.59 224.45 325.42 269.35 325.39"/><polygon class="cls-1" points="224.45 299.59 269.35 325.39 269.35 273.79 224.45 299.59"/><polygon class="cls-3" points="224.45 248.03 269.35 273.83 269.35 222.23 224.45 248.03"/><polygon class="cls-4" points="224.45 196.43 269.35 222.23 269.35 170.63 224.45 196.43"/><polygon class="cls-3" points="224.45 144.83 179.56 119.03 179.56 170.63 224.45 144.83"/><polygon class="cls-4" points="224.45 299.63 179.56 273.83 179.56 325.44 224.45 299.63"/><polygon class="cls-1" points="179.56 325.44 224.45 325.42 224.45 299.63 179.56 325.44"/><path class="cls-3" d="M179.56,273.83l44.89,25.8V272.71Z"/><polygon class="cls-1" points="179.56 170.63 224.45 196.43 224.45 144.83 179.56 170.63"/><polygon class="cls-3" points="179.56 118.97 134.67 93.17 134.67 144.77 179.56 118.97"/><path class="cls-1" d="M179.56,273.77l-44.6.1-.29,25.7Z"/><polygon class="cls-1" points="179.56 325.38 134.67 299.57 134.67 325.44 179.56 325.38"/><polygon class="cls-2" points="134.67 299.57 179.56 325.38 179.56 273.77 134.67 299.57"/><polygon class="cls-2" points="134.67 144.77 179.56 170.57 179.56 118.97 134.67 144.77"/><polygon class="cls-2" points="134.67 144.82 89.78 119.02 89.78 170.62 134.67 144.82"/><polygon class="cls-2" points="134.67 299.62 89.78 273.82 89.78 325.42 134.67 299.62"/><polygon class="cls-3" points="89.78 325.42 134.67 325.44 134.67 299.62 89.78 325.42"/><path class="cls-4" d="M89.78,273.82l44.89,25.8.29-25.75Z"/><polygon class="cls-1" points="89.78 119.02 134.67 144.82 134.67 93.21 89.78 119.02"/><polygon class="cls-2" points="89.78 170.54 44.89 144.74 44.89 196.35 89.78 170.54"/><path class="cls-1" d="M89.78,273.75l-44.62.52-.27,25.28Z"/><polygon class="cls-2" points="89.78 325.35 44.89 299.55 44.89 325.42 89.78 325.35"/><polygon class="cls-4" points="44.89 299.55 89.78 325.35 89.78 273.75 44.89 299.55"/><polygon class="cls-3" points="44.89 144.74 89.78 170.54 89.78 118.94 44.89 144.74"/><polygon class="cls-1" points="44.89 196.39 0 170.59 0 222.2 44.89 196.39"/><polygon class="cls-2" points="44.89 248 0 222.2 0 273.8 44.89 248"/><polygon class="cls-1" points="44.89 299.6 0 273.8 0 325.4 44.89 299.6"/><polyline class="cls-4" points="0 325.4 44.89 325.42 44.89 299.6 0 325.4"/><polygon class="cls-5" points="0 273.8 44.89 299.6 44.89 248 0 273.8"/><polygon class="cls-3" points="0 222.2 44.89 248 44.89 196.39 0 222.2"/><polygon class="cls-4" points="0 170.59 44.89 196.39 44.89 144.79 0 170.59"/><polygon class="cls-3" points="0 273.83 44.89 299.63 44.89 248.03 0 273.83"/><polygon class="cls-2" points="96.37 22.06 134.67 44.07 134.67 0.04 96.37 22.06"/><polygon class="cls-3" points="134.67 44.07 96.37 22.06 96.37 66.08 134.67 44.07"/><polygon class="cls-4" points="134.67 44.03 172.98 66.05 172.98 22.02 134.67 44.03"/><polygon class="cls-3" points="172.98 22.02 134.67 0 134.67 44.03 172.98 22.02"/><polygon class="cls-4" points="172.98 66.1 211.28 88.11 211.28 44.08 172.98 66.1"/><polygon class="cls-1" points="211.28 44.08 172.98 22.07 172.98 66.1 211.28 44.08"/><polygon class="cls-1" points="58.07 44.18 96.37 66.2 96.37 22.17 58.07 44.18"/><polygon class="cls-4" points="96.37 66.2 58.07 44.18 58.07 88.21 96.37 66.2"/></g></g></svg>