<svg xmlns="http://www.w3.org/2000/svg" viewBox="0 0 581.75 581.75"><defs><style>.cls-1{fill:#fff8ee;}.cls-2{fill:none;stroke:#97d7db;stroke-miterlimit:10;stroke-width:6px;}.cls-3{fill:#f6863b;}.cls-4{fill:#fcce4d;}.cls-5{fill:#97d7db;}.cls-6{fill:#5cadaf;}.cls-7{fill:#243d4d;}</style></defs><title>logo-w</title><g id="Layer_2" data-name="Layer 2"><g id="Layer_1-2" data-name="Layer 1"><rect class="cls-1" width="581.75" height="581.75" transform="translate(0 581.75) rotate(-90)"/><rect class="cls-2" x="67.35" y="67.35" width="447.06" height="447.06" transform="translate(0 581.75) rotate(-90)"/><polygon class="cls-3" points="425.55 342.51 380.66 316.71 380.66 368.32 425.55 342.51"/><polygon class="cls-4" points="425.55 290.91 380.66 265.11 380.66 316.71 425.55 290.91"/><polygon class="cls-4" points="425.55 394.12 380.66 368.32 380.66 419.92 425.55 394.12"/><polygon class="cls-4" points="425.55 445.72 380.66 419.92 380.66 445.75 425.55 445.72"/><polygon class="cls-3" points="380.66 419.92 425.55 445.72 425.55 394.12 380.66 419.92"/><polygon class="cls-5" points="380.66 368.36 425.55 394.17 425.55 342.56 380.66 368.36"/><polygon class="cls-6" points="380.66 316.76 425.55 342.56 425.55 290.96 380.66 316.76"/><polygon class="cls-5" points="380.66 265.16 335.77 239.36 335.77 290.96 380.66 265.16"/><polygon class="cls-6" points="380.66 419.97 335.77 394.17 335.77 445.77 380.66 419.97"/><polygon class="cls-3" points="335.77 445.77 380.66 445.75 380.66 419.97 335.77 445.77"/><path class="cls-5" d="M335.77,394.16,380.66,420V393Z"/><polygon class="cls-3" points="335.77 290.96 380.66 316.76 380.66 265.16 335.77 290.96"/><polygon class="cls-5" points="335.77 239.3 290.88 213.5 290.88 265.1 335.77 239.3"/><path class="cls-3" d="M335.77,394.1l-44.6.1-.29,25.7Z"/><polygon class="cls-3" points="335.77 445.71 290.88 419.91 290.88 445.77 335.77 445.71"/><polygon class="cls-4" points="290.88 419.91 335.77 445.71 335.77 394.11 290.88 419.91"/><polygon class="cls-4" points="290.88 265.1 335.77 290.9 335.77 239.3 290.88 265.1"/><polygon class="cls-4" points="290.88 265.15 245.99 239.35 245.99 290.95 290.88 265.15"/><polygon class="cls-4" points="290.88 419.95 245.99 394.15 245.99 445.75 290.88 419.95"/><polygon class="cls-5" points="245.99 445.75 290.88 445.77 290.88 419.95 245.99 445.75"/><path class="cls-6" d="M246,394.15,290.88,420l.29-25.75Z"/><polygon class="cls-3" points="245.99 239.35 290.88 265.15 290.88 213.54 245.99 239.35"/><polygon class="cls-4" points="245.99 290.88 201.09 265.07 201.09 316.68 245.99 290.88"/><path class="cls-3" d="M246,394.08l-44.62.52-.27,25.28Z"/><polygon class="cls-4" points="245.99 445.68 201.09 419.88 201.09 445.75 245.99 445.68"/><polygon class="cls-6" points="201.09 419.88 245.99 445.68 245.99 394.08 201.09 419.88"/><polygon class="cls-6" points="201.09 265.07 245.99 290.88 245.99 239.27 201.09 265.07"/><polygon class="cls-3" points="201.09 316.73 156.2 290.92 156.2 342.53 201.09 316.73"/><polygon class="cls-4" points="201.09 368.33 156.2 342.53 156.2 394.13 201.09 368.33"/><polygon class="cls-3" points="201.09 419.93 156.2 394.13 156.2 445.73 201.09 419.93"/><polyline class="cls-6" points="156.2 445.73 201.09 445.75 201.09 419.93 156.2 445.73"/><polygon class="cls-7" points="156.2 394.13 201.09 419.93 201.09 368.33 156.2 394.13"/><polygon class="cls-5" points="156.2 342.53 201.09 368.33 201.09 316.73 156.2 342.53"/><polygon class="cls-6" points="156.2 290.92 201.09 316.73 201.09 265.12 156.2 290.92"/><polygon class="cls-5" points="156.2 394.17 201.09 419.97 201.09 368.36 156.2 394.17"/><polygon class="cls-4" points="252.57 142.39 290.88 164.4 290.88 120.37 252.57 142.39"/><polygon class="cls-5" points="290.88 164.4 252.57 142.39 252.57 186.42 290.88 164.4"/><polygon class="cls-6" points="290.88 164.36 329.18 186.38 329.18 142.35 290.88 164.36"/><polygon class="cls-5" points="329.18 142.35 290.88 120.33 290.88 164.36 329.18 142.35"/><polygon class="cls-6" points="329.18 186.43 367.48 208.44 367.48 164.41 329.18 186.43"/><polygon class="cls-3" points="367.48 164.41 329.18 142.4 329.18 186.43 367.48 164.41"/><polygon class="cls-3" points="214.27 164.51 252.57 186.53 252.57 142.5 214.27 164.51"/><polygon class="cls-6" points="252.57 186.53 214.27 164.51 214.27 208.54 252.57 186.53"/></g></g></svg>