<svg xmlns="http://www.w3.org/2000/svg" viewBox="0 0 305.95 494"><defs><style>.cls-1,.cls-2{fill:none;stroke:#fff;stroke-linecap:round;stroke-miterlimit:10;}.cls-1{stroke-width:22px;}.cls-2{stroke-width:15px;}</style></defs><title>logo1x</title><g id="Layer_2" data-name="Layer 2"><g id="Layer_1-2" data-name="Layer 1"><circle class="cls-1" cx="156" cy="183.38" r="109.38"/><path class="cls-1" d="M151.62,119.33c3.31-.44,29.46-3.45,49.33,16,15.43,15.1,17.06,33.95,17.33,38.67"/><path class="cls-1" d="M162.89,249.16c-3.31.44-29.46,3.45-49.33-16-15.43-15.1-17.06-33.95-17.33-38.67"/><path class="cls-2" d="M163.72,355.94c-5-8.7-16.63-18.64-24.33-16.94s-12.22,9-13.44,14.48c-2.7,12.25,8.66,28,29.28,37.41"/><path class="cls-2" d="M149,355.29c5-8.31,15.85-17.12,23.43-15.42s12.23,9,13.44,14.48c2.71,12.23-8.66,28-29.28,37.41"/><polyline class="cls-2" points="144.13 385.71 131.29 436.48 160.23 436.48"/><polyline class="cls-2" points="168.5 385.71 181.34 436.48 152.4 436.48"/><rect class="cls-1" x="11" y="11" width="283.95" height="472" rx="76.16" ry="76.16"/></g></g></svg>
<svg xmlns="http://www.w3.org/2000/svg" viewBox="0 0 305.95 494"><defs><style>.cls-1,.cls-2{fill:none;stroke:#fff;stroke-linecap:round;stroke-miterlimit:10;}.cls-1{stroke-width:22px;}.cls-2{stroke-width:15px;}</style></defs><title>logo1x</title><g id="Layer_2" data-name="Layer 2"><g id="Layer_1-2" data-name="Layer 1"><circle class="cls-1" cx="156" cy="183.38" r="109.38"/><path class="cls-1" d="M151.62,119.33c3.31-.44,29.46-3.45,49.33,16,15.43,15.1,17.06,33.95,17.33,38.67"/><path class="cls-1" d="M162.89,249.16c-3.31.44-29.46,3.45-49.33-16-15.43-15.1-17.06-33.95-17.33-38.67"/><path class="cls-2" d="M163.72,355.94c-5-8.7-16.63-18.64-24.33-16.94s-12.22,9-13.44,14.48c-2.7,12.25,8.66,28,29.28,37.41"/><path class="cls-2" d="M149,355.29c5-8.31,15.85-17.12,23.43-15.42s12.23,9,13.44,14.48c2.71,12.23-8.66,28-29.28,37.41"/><polyline class="cls-2" points="144.13 385.71 131.29 436.48 160.23 436.48"/><polyline class="cls-2" points="168.5 385.71 181.34 436.48 152.4 436.48"/><rect class="cls-1" x="11" y="11" width="283.95" height="472" rx="76.16" ry="76.16"/></g></g></svg>